{"title":"JUST TEENS PORN BUSTY TEEN SILVERDUST{HKRG}","uid":6237133,"size":799889730,"categoryP":"porn","categoryS":"movie_clips","magnet":"?xt=urn:btih:f013c267df1672f7d737b5f2e263056b8f09c11b&amp;dn=JUST+TEENS+PORN+BUSTY+TEEN+SILVERDUST%7BHKRG%7D&amp;tr=udp%3A%2F%2Ftracker.openbittorrent.com%3A80&amp;tr=udp%3A%2F%2Fopen.demonii.com%3A1337&amp;tr=udp%3A%2F%2Ftracker.coppersurfer.tk%3A6969&amp;tr=udp%3A%2F%2Fexodus.desync.com%3A6969","seeders":1,"leechers":1,"uploader":"dodgerblue","files":6,"time":1299920444,"description":"JUST TEENS PORN BUSTY TEEN SILVERDUST{HKRG} &lt;a href=&quot;\nhttp://img3.immage.de/12032b8image49089765.jpg&quot; rel=&quot;nofollow&quot; target=&quot;_NEW&quot;&gt;\nhttp://img3.immage.de/12032b8image49089765.jpg&lt;/a&gt; &lt;a href=&quot;\nhttp://img2.immage.de/1203image49092203.jpg&quot; rel=&quot;nofollow&quot; target=&quot;_NEW&quot;&gt;\nhttp://img2.immage.de/1203image49092203.jpg&lt;/a&gt; &lt;a href=&quot;\nhttp://img2.immage.de/12031image49094015.jpg&quot; rel=&quot;nofollow&quot; target=&quot;_NEW&quot;&gt;\nhttp://img2.immage.de/12031image49094015.jpg&lt;/a&gt; &lt;a href=&quot;\nhttp://img1.immage.de/1203bcimage49095765.jpg&quot; rel=&quot;nofollow&quot; target=&quot;_NEW&quot;&gt;\nhttp://img1.immage.de/1203bcimage49095765.jpg&lt;/a&gt;\n[img]http://img3.immage.de/12032b8image49089765.jpg[/img]\n\n[img]http://img2.immage.de/1203image49092203.jpg[/img]\n\n[img]http://img2.immage.de/12031image49094015.jpg[/img]\n\n[img]http://img1.immage.de/1203bcimage49095765.jpg[/img]\n &lt;a href=&quot;\nhttp://www.leetleech.org/images/18303343431790770369.jpg&quot; rel=&quot;nofollow&quot; target=&quot;_NEW&quot;&gt;\nhttp://www.leetleech.org/images/18303343431790770369.jpg&lt;/a&gt;\n    &lt;a href=&quot;\thttp://www.leetleech.org/images/19434850862042516343.png&quot; rel=&quot;nofollow&quot; target=&quot;_NEW&quot;&gt;\thttp://www.leetleech.org/images/19434850862042516343.png&lt;/a&gt;\n    &lt;a href=&quot;\thttp://www.leetleech.org/images/12500027222855510612.png&quot; rel=&quot;nofollow&quot; target=&quot;_NEW&quot;&gt;\thttp://www.leetleech.org/images/12500027222855510612.png&lt;/a&gt;\n    &lt;a href=&quot;\thttp://www.leetleech.org/images/24117247422222371002.png&quot; rel=&quot;nofollow&quot; target=&quot;_NEW&quot;&gt;\thttp://www.leetleech.org/images/24117247422222371002.png&lt;/a&gt;\nFormat                           : Windows Media\nFile size                        : 760 MiB\nDuration                         : 22mn 36s\nOverall bit rate mode            : Variable\nOverall bit rate                 : 4 699 Kbps\nMaximum Overall bit rate         : 20.2 Mbps\nEncoded date                     : UTC 2007-03-31 17:57:52.843\n\nVideo\nID                               : 2\nFormat                           : VC-1\nFormat profile                   : MP@HL\nCodec ID                         : WMV3\nCodec ID/Info                    : Windows Media Video 9\nCodec ID/Hint                    : WMV3\nDescription of the codec         : Windows Media Video 9 - Professional\nDuration                         : 22mn 36s\nBit rate mode                    : Variable\nBit rate                         : 4 500 Kbps\nWidth                            : 1 280 pixels\nHeight                           : 720 pixels\nDisplay aspect ratio             : 16:9\nFrame rate                       : 25.000 fps\nBit depth                        : 8 bits\nScan type                        : Progressive\nCompression mode                 : Lossy\nBits/(Pixel*Frame)               : 0.195\nStream size                      : 728 MiB (96%)\n\nAudio\nID                               : 1\nFormat                           : WMA\nFormat version                   : Version 2\nCodec ID                         : 161\nCodec ID/Info                    : Windows Media Audio\nDescription of the codec         : Windows Media Audio 9.2 -  96 kbps, 44 kHz, stereo 2-pass CBR\nDuration                         : 22mn 36s\nBit rate mode                    : Constant\nBit rate                         : 96.0 Kbps\nChannel(s)                       : 2 channels\nSampling rate                    : 44.1 KHz\nBit depth                        : 16 bits\nStream size                      : 15.5 MiB (2%)\nNJOI","torrent":{"xt":"urn:btih:f013c267df1672f7d737b5f2e263056b8f09c11b","amp;dn":"JUST+TEENS+PORN+BUSTY+TEEN+SILVERDUST%7BHKRG%7D","amp;tr":["udp%3A%2F%2Ftracker.openbittorrent.com%3A80","udp%3A%2F%2Fopen.demonii.com%3A1337","udp%3A%2F%2Ftracker.coppersurfer.tk%3A6969","udp%3A%2F%2Fexodus.desync.com%3A6969"],"infoHash":"f013c267df1672f7d737b5f2e263056b8f09c11b","infoHashBuffer":{"type":"Buffer","data":[240,19,194,103,223,22,114,247,215,55,181,242,226,99,5,107,143,9,193,27]},"announce":[],"urlList":[]}}